/* XPM */
static char * RetroCatsFree_xpm[] = {
"64 64 117 2",
"  	c None",
". 	c #AACCDC",
"+ 	c #BEE3F4",
"@ 	c #4D6D7C",
"# 	c #553E3F",
"$ 	c #DE8347",
"% 	c #C96E36",
"& 	c #D77B44",
"* 	c #B25D2E",
"= 	c #D98F68",
"- 	c #603D42",
"; 	c #E8A35D",
"> 	c #DE7F44",
", 	c #D06D3C",
"' 	c #D97B4B",
") 	c #D17439",
"! 	c #E19050",
"~ 	c #DA8C49",
"{ 	c #DA8965",
"] 	c #F0A374",
"^ 	c #EC9756",
"/ 	c #E89353",
"( 	c #E18041",
"_ 	c #D7724D",
": 	c #857E7C",
"< 	c #DF9B62",
"[ 	c #CB804C",
"} 	c #782629",
"| 	c #862C18",
"1 	c #35191E",
"2 	c #903B34",
"3 	c #93452B",
"4 	c #ECAE6E",
"5 	c #EEAB6B",
"6 	c #E29B5A",
"7 	c #BB613D",
"8 	c #603235",
"9 	c #4F1B0D",
"0 	c #BF866C",
"a 	c #B2795D",
"b 	c #743E3C",
"c 	c #DD8C45",
"d 	c #602718",
"e 	c #9B4E2F",
"f 	c #F4C67F",
"g 	c #F2B378",
"h 	c #EEA76F",
"i 	c #F5B176",
"j 	c #EF9A5A",
"k 	c #EBA761",
"l 	c #EA9E6A",
"m 	c #DD8F5E",
"n 	c #F0A46E",
"o 	c #EFA35F",
"p 	c #7F3B46",
"q 	c #D18A62",
"r 	c #DA7F50",
"s 	c #D2815B",
"t 	c #A35337",
"u 	c #8B3E28",
"v 	c #B85127",
"w 	c #EAA46A",
"x 	c #E1A169",
"y 	c #B05E43",
"z 	c #F7BA6F",
"A 	c #E39765",
"B 	c #F8B460",
"C 	c #F4AC70",
"D 	c #994A35",
"E 	c #BB8076",
"F 	c #B46547",
"G 	c #EA9552",
"H 	c #D67C4F",
"I 	c #C35F35",
"J 	c #B1453C",
"K 	c #76402C",
"L 	c #975245",
"M 	c #62292A",
"N 	c #94593D",
"O 	c #8A4035",
"P 	c #C87853",
"Q 	c #F8C47F",
"R 	c #F5C27F",
"S 	c #C0704B",
"T 	c #994D34",
"U 	c #DA7E4B",
"V 	c #D8773A",
"W 	c #F2A165",
"X 	c #C56A32",
"Y 	c #3E1B2C",
"Z 	c #4D2124",
"` 	c #8D241A",
" .	c #E9924B",
"..	c #892920",
"+.	c #84443C",
"@.	c #74A3B8",
"#.	c #82B3CA",
"$.	c #4A6A78",
"%.	c #845747",
"&.	c #A24429",
"*.	c #8B4031",
"=.	c #893E2C",
"-.	c #DC8D5F",
";.	c #5B261A",
">.	c #CF773C",
",.	c #E18F56",
"'.	c #AE5941",
").	c #44606E",
"!.	c #CC7550",
"~.	c #DF8A4B",
"{.	c #B75A2E",
"].	c #722C24",
"^.	c #A84532",
"/.	c #8B3021",
"(.	c #AD4524",
"_.	c #993D31",
":.	c #D17446",
"                                                                                                                                ",
"                                                                                                                                ",
"                                                                                                                                ",
"                                                                                                                                ",
"                                                                                                                                ",
"                                                                                                                                ",
"                                                                                                                                ",
"                                                                                                                                ",
"                                                                                                                                ",
"                                                                                                                                ",
"                                                                                                                                ",
"                                                                                                                                ",
"                                                                                                                                ",
"                                                                                                                                ",
"                                                                                                                                ",
"                                              . . . . . . . . . . . . . . . . .                                                 ",
"                                          . . + + + + + + + + + + + + + + + + + . .                                             ",
"                                    . . . + + + + + + + + + + + + + + + + + + + + + . .                                         ",
"                                  . + + + + + + + + + + + + + + + + + + + + + + + + + + .                                       ",
"                              . . + + + + + + + + + + + + + + + + + + + + + + + + + + + + .                                     ",
"                            . + + + + + + + + + @ @ @ @ @ @ @ @ @ @ @ @ @ @ + + + + + + + + .                                   ",
"                          . + + + + + + + @ @ @ @ @ @ @ # # # # @ @ @ @ @ @ @ @ @ + + + + + + .                                 ",
"                        . + + + + + + + @ @ @ @ # @ @ # $ % & * # @ # # # # @ @ @ @ @ + + + + + .                               ",
"                        . + + + + + + @ @ @ @ # = - # ; > , ' ) # # $ % & * # @ @ @ @ @ + + + + + .                             ",
"                      . + + + + + @ @ @ @ @ # ! ~ { # ] ^ / ( _ # ; > , ' ) # # # : @ @ @ + + + + .                             ",
"                      . + + + + @ @ @ @ @ # # # < [ # } | # 1 # # ] ^ / ( _ # 2 3 # @ @ @ @ + + + + .                           ",
"                    . + + + + @ @ @ @ # # 4 5 6 7 8 9 # # 0 a b # } | # 1 # # c d # # # @ @ + + + + .                           ",
"                    . + + + + @ @ @ # e f g h i j 2 8 # k l m n o # # 0 a # 8 p q r 2 s # @ + + + + .                           ",
"                    . + + + @ @ @ # t u v w g x y # # # z l A B C # k l D E E # F G H I J # + + + + .                           ",
"                    . + + + @ @ # # K L M N 8 O 8 # # P E Q R S # # z T T Q z k # U V 2 # @ + + + + .                           ",
"                    . + + + @ # W X # # # # Y Z T D # 8 # D T Z Y 8 Y Z R A l # # } ` # @ @ + + + + .                           ",
"                    . + + + @ #  .# # ..# # # S R l z # +.8 # # # B # # B n a 0 # ^ ; ; # @ + + + + .                           ",
"                  @.#.+ + + @ $.# # V U %.# C B A l k # &.*.=.# -.B B # o n b 1 / , > # $.@ + + + #.#.@.                        ",
"                  @.#.+ + + @ $.# I H G F # # n a 0 # # ;.8 # # # # # # # # # _ ( , % # $.+ + + + #.#.@.                        ",
"                  @.#.#.+ + + @ # # 2 r q p # # 1 # # } >.,.'.# ` U U F p c # _ ) & # 2 + + + + #.#.#.@.                        ",
"                  @.#.#.+ + + + + ).# # d c # B ( / ^ ] !.~.{.].# V G r d c # # # # 2 + + + + + #.#.#.@.                        ",
"                  @.#.#.#.+ + + + + 2 # # 2 # ) ' , > ; ^./.(._.# I 2 # # # # 2 2 + + + + + + #.#.#.#.@.                        ",
"                  @.#.#.#.#.+ + + + + 2 2 2 # * & % $ # :.# # # J # # # # 2 2 2 + + + + + #.#.#.#.#.#.@.                        ",
"                  @.#.#.#.#.#.+ + + + + + 2 2 # # # # # # 2 2 2 2 2 2 2 2 2 2 + + + + + #.#.#.#.#.#.#.@.                        ",
"                  @.#.#.#.#.#.#.+ + + + + + + + + + + + + + + + + + + + + + + + + + + #.#.#.#.#.#.#.#.@.                        ",
"                  @.#.#.#.#.#.#.#.#.+ + + + + + + + + + + + + + + + + + + + + + + #.#.#.#.#.#.#.#.#.#.@.                        ",
"                  @.#.#.#.#.#.#.#.#.#.#.+ + + + + + + + + + + + + + + + + + + #.#.#.#.#.#.#.#.#.#.#.#.@.                        ",
"                  @.#.#.#.#.#.#.#.#.#.#.#.#.+ + + + + + + + + + + + + + + #.#.#.#.#.#.#.#.#.#.#.#.#.@.                          ",
"                    @.#.#.#.#.#.#.#.#.#.#.#.#.#.#.#.#.#.#.#.#.#.#.#.#.#.#.#.#.#.#.#.#.#.#.#.#.#.#.#.@.                          ",
"                      @.#.#.#.#.#.#.#.#.#.#.#.#.#.#.#.#.#.#.#.#.#.#.#.#.#.#.#.#.#.#.#.#.#.#.#.#.#.#.@.                          ",
"                      @.#.#.#.#.#.#.#.#.#.#.#.#.#.#.#.#.#.#.#.#.#.#.#.#.#.#.#.#.#.#.#.#.#.#.#.#.#.@.                            ",
"                        @.#.#.#.#.#.#.#.#.#.#.#.#.#.#.#.#.#.#.#.#.#.#.#.#.#.#.#.#.#.#.#.#.#.#.#.@.                              ",
"                          @.#.#.#.#.#.#.#.#.#.#.#.#.#.#.#.#.#.#.#.#.#.#.#.#.#.#.#.#.#.#.#.#.#.@.                                ",
"                            @.@.#.#.#.#.#.#.#.#.#.#.#.#.#.#.#.#.#.#.#.#.#.#.#.#.#.#.#.#.#.@.@.                                  ",
"                                @.#.#.#.#.#.#.#.#.#.#.#.#.#.#.#.#.#.#.#.#.#.#.#.#.#.#.@.@.                                      ",
"                                  @.@.#.#.#.#.#.#.#.#.#.#.#.#.#.#.#.#.#.#.#.#.#.#.#.@.                                          ",
"                                      @.@.@.@.@.@.@.@.@.@.@.@.@.@.@.@.@.@.@.@.@.@.@.                                            ",
"                                                                                                                                ",
"                                                                                                                                ",
"                                                                                                                                ",
"                                                                                                                                ",
"                                                                                                                                ",
"                                                                                                                                ",
"                                                                                                                                ",
"                                                                                                                                ",
"                                                                                                                                ",
"                                                                                                                                ",
"                                                                                                                                ",
"                                                                                                                                "};
