/* XPM */
static char *_1f03f92d29d4ffc8d86415ed5df9cddvvXVKS55IKyhECwM[] = {
/* columns rows colors chars-per-pixel */
"64 64 155 2 ",
"   c #000000",
".  c #000000",
"X  c #000000",
"o  c #000000",
"O  c #000000",
"+  c #000000",
"@  c #000000",
"#  c #000000",
"$  c #000000",
"%  c #000000",
"&  c #000000",
"*  c #000000",
"=  c #000000",
"-  c #000000",
";  c #000000",
":  c #000000",
">  c #000000",
",  c #000000",
"<  c #000000",
"1  c #000000",
"2  c #000000",
"3  c #000000",
"4  c #000000",
"5  c #000000",
"6  c #000000",
"7  c #000000",
"8  c #000000",
"9  c #000000",
"0  c #000000",
"q  c #000000",
"w  c #000000",
"e  c #000000",
"r  c #000000",
"t  c #000000",
"y  c #000000",
"u  c #000000",
"i  c #000000",
"p  c #000000",
"a  c #000000",
"s  c #000000",
"d  c #000000",
"f  c #000000",
"g  c #000000",
"h  c #000000",
"j  c #000000",
"k  c #000000",
"l  c #000000",
"z  c #000000",
"x  c #000000",
"c  c #000000",
"v  c #000000",
"b  c #000000",
"n  c #000000",
"m  c #000000",
"M  c #000000",
"N  c #000000",
"B  c #000000",
"V  c #000000",
"C  c #000000",
"Z  c #000000",
"A  c #000000",
"S  c #000000",
"D  c #000000",
"F  c #000000",
"G  c #000000",
"H  c #000000",
"J  c #000000",
"K  c #000000",
"L  c #000000",
"P  c #000000",
"I  c #000000",
"U  c #000000",
"Y  c #000000",
"T  c #000000",
"R  c #000000",
"E  c #000000",
"W  c #000000",
"Q  c #000000",
"!  c #000000",
"~  c #000000",
"^  c #000000",
"/  c #000000",
"(  c #000000",
")  c #000000",
"_  c #000000",
"`  c #000000",
"'  c #000000",
"]  c #000000",
"[  c #000000",
"{  c #000000",
"}  c #000000",
"|  c #000000",
" . c #000000",
".. c #000000",
"X. c #000000",
"o. c #000000",
"O. c #000000",
"+. c #000000",
"@. c #000000",
"#. c #000000",
"$. c #000000",
"%. c #000000",
"&. c #000000",
"*. c #000000",
"=. c #000000",
"-. c #000000",
";. c #000000",
":. c #000000",
">. c #000000",
",. c #000000",
"<. c #000000",
"1. c #000000",
"2. c #000000",
"3. c #000000",
"4. c #000000",
"5. c #000000",
"6. c #000000",
"7. c #000000",
"8. c #000000",
"9. c #000000",
"0. c #000000",
"q. c #000000",
"w. c #000000",
"e. c #000000",
"r. c #000000",
"t. c #000000",
"y. c #000000",
"u. c #000000",
"i. c #000000",
"p. c #000000",
"a. c #000000",
"s. c #000000",
"d. c #000000",
"f. c #000000",
"g. c #000000",
"h. c #000000",
"j. c #000000",
"k. c #000000",
"l. c #000000",
"z. c #000000",
"x. c #000000",
"c. c #000000",
"v. c #000000",
"b. c #000000",
"n. c #000000",
"m. c #000000",
"M. c #000000",
"N. c #000000",
"B. c #000000",
"V. c #000000",
"C. c #000000",
"Z. c #000000",
"A. c #000000",
"S. c #000000",
"D. c #000000",
/* pixels */
"x x x x z z P x x x ~ P w.N., 9 w.T A A A A A A A x P A x x x x x x P A A A A P A x x P x x A A x x x x x x x x x A A x x x x T ",
"x x x x z z x x x x P P P x , 9 w.,.A A A A A A x x P P x A x x A x P A A A A P A x x A A x A x x x x x T T x x x P A x x x x T ",
"A x x A x x x P P P P A P x 6 y w.,.A A A P P A x x P P A A A A A A P P A A A A A x A A T A A x x x x x A A x x P x x x A x x T ",
"A x x x x x x P P P P P x T 6 9 ,.T A A P P P A A P P A A A A A A P P P A A A A P x A A T T A x x T T T A x A A P x x x A x x T ",
"x x x x x x x P P x A P x ,.6 8 ,.T A A A A A A A A P A A A A A A A A A G A G x P x A A P P P x x x P P A A A A A x x x T x x T ",
"x A A x x P P P A z ~ A A ,.7 p ,.,.A A A A P A A x x P A A A A x A A A G A G x A A A A P A T P x x x x A ,.A A A A x x T A A T ",
"v P P P T P P P x x v P A A 7 a ,.~ A P P P A A A A P P P A A P A A A A v v v v A P A A P A T P x x x x A T A P A A A A A A T T ",
"v v P P T x z P x ~ v P A ,.9 y ~ A P P P P A A A A A A P A A P A A A A G A v v P P A A A A A x x T A A P P A A x A T A A A T T ",
"x k P P x x P ~ P v K K A ,.7 a i.~ ~ P P x x x P P A A A A A A P P P ~ ~ P P P A A A P A x x T P x P P ~ A z A A K A P P P P P ",
"K v v v P T ~ P x P P z A ,.7 y K ~ ~ P P ~ A z A P A P A A A A x P P P P P P A P ~ ~ P x A T x T P x A A P A A P P ~ P P P T ~ ",
"v v P P P T ~ P v K P k x T 6 p ~ ~ ~ P P P A P A P P K K P P P T T ~ P P P P A P P P P T ,.T T T P T ] P P A P H H ~ ~ T ~ T T ",
"K K K K T T ~ ~ v K K ,.,.T ; p ~ A P ~ ~ A P ~ P P P K K P P ~ P T P P P ~ K A ~ P P ~ T T A T T P w.T P ~ P ~ ~ ~ H P T T P x ",
"x.K P P P P P P K A v A x A - p a.T x P T T P P P P P x x x P ~ H H P P P ~ ~ H v A ~ ~ T T T T ] ] x z P ~ ~ ~ ~ A A P P x P ~ ",
"x.,.~ a.w.~ T ~ ~ ~ K A z k $ - P T ~ T T w.a.b.w.a.b.b.a.w.w.w.a.a.a.a.b.b.l.a.h.a.a.w.,.T ,.w.w.b.T w.V.V.V.a.a.~ ~ ~ ~ ] a.N.",
", , 3 4 3 , , 3 > , > - > > + O % - , 3 3 6 6 6 , 3 4 6 6 6 3 > 4 4 4 6 6 6 6 8 7 6 6 6 7 9 r p s y 9 7 3 6 8 9 8 6 6 6 7 7 6 6 ",
"s s s s a a a a a s y y d h z z a a r y a s a a r r r 9 y a p 9 9 9 9 8 6 4 6 8 6 7 6 4 6 8 6 3 @ + 7 9 3 6 , 6 4 4 3 4 4 , ; = ",
",.T A A A T +.A A A &.,.T T A ~ ,.,.,.#.T A &.#.&.#.&.A &.A T K A A K K ,.#.,.A ,.,.a.a.a.a.P z   , x A A #.#.#.A A A T &.A ,.h.",
",.,.T T &.&.+.A A A A &.A A T ~ #.#.#.A A A A +.+.+.+.+.A A A A K A A G G G G x G A ,.~ ~ } ~ ~ # 8 +.A x G G G A A x x A A A ,.",
"w.,.T T &.&.+.A A A A A A A A ~ #.#.#.#.#.+.#.#.+.+.+.#.+.A A A #.#.+.A A +.+.+.,.#.A A ,.~ ~ A , p +.x x G G v A A x x A A G G ",
",.T A A &.&.A A A A A A A A T ,.A A A A A A A A A A +.+.+.A A A A A A A A A +.+.+.G A A ,.,.,.,.6 y A x G A A G A A A A A A G x ",
"A A A A A A A A A A A A A A A A A A A A A A A A A A A A A A A A A A A A A A A A x x +.,.&.&.,.h.7 y T A G G G G G A A x A A x l ",
"x A A A P P A A A A A A A A A A ,.,.T T A A &.&.T A A A A A A A A &.+.+.+.+.+.A +.+.+.&.&.&.,.r.7 r ,.A G l n G A A A A A x l x ",
"x A A A P x P A A A A A A x A T T A A A A A A A T A A A A A A A x x x A A A +.x +.A x A &.6.r.r.6 r ~ v v z v v P P A A A x x A ",
"A A T A A P P A P A A A x x A T ,.,.T A A A A A A P A A A A A ,.x x A A A A A x x +.&.&.&.&.r.r.6 9 ~ P K G v v v v x A A P x A ",
",.A A A P x v ~ P A A x A ,.A x A A T ,.A A T ,.A T ,.,.T ,.,.A A ~ ~ T ,.A A ,.A &.&.x T w.r.w.7 9 ~ ~ K G G k v z x P x x x x ",
"A A P T ~ A ~ A P A T A A T A A A x A A T T A x T T ,.T A A A A P P P P T A A A A A ,.w.w.T T ,.6 7 P ~ A K v v x x P P x x x x ",
"A A A A x A ~ P A ~ A A A A A A T A A A A A ~ ~ P P A ~ A A T T ~ ~ ~ A ~ ~ ~ ~ ~ A A A T T T T 6 8 z ~ i.K a.K P P P P A A A A ",
"A A A T A A ~ P P ~ A A T A A T A T ,.,.A A P P ~ A A ~ ,.T A ,.~ ~ A A A A ~ ~ ~ ,.,.,.] ] T T 3 8 P ,.K ~ A P P ~ P P A A A A ",
"N.A x A A A ~ P P ~ A A T A A ,.T A A A P T ~ P T P P T w.] T T T P ~ ~ ~ P A ,.~ P T ] T x P w.4 = V.P K K K ,.P A T x A x x ,.",
"D.w.,.w.,.,.a.,.~ ~ ,.A A ,.h.A.N.w.T A P ~ b.b.a.b.w.w.N.b.w.w.a.] a.V.a.P A ~ a.~ P T ~ T P x $ o v P i.P ,.x P ~ w.T T A A w.",
"8 7 r a r r r 9 y 9 r 8 r a y p r y p p r r r r 8 9 7 6 6 6 3 4 6 3 6 6 4 , , , 3 4 3 , , , ; * X . # > * > 3 3 3 , 3 3 3 3 3 3 ",
"r 7 7 8 7 7 8 8 8 4 6 4 6 7 = # ; , 3 6 7 9 9 8 8 9 9 8 9 r 9 r y r r r 9 9 y a a a p p p a d z P ~ k y a a y y y 9 9 r r y r 7 ",
"x A A A x A A P A a.~ ~ i.x . 1 h.6.#.,.r.,.,.A T ,.,.#.&.#.,.,.,.#.,.,.,.,.,.,.,.,.,.,.,.,.&.A ,.,.T A &.A x A A &.8.&.T &.r.A.",
"~ K A T +.A A A ~ ~ H H K k * y >.#.#.+.+.+.A A A A +.+.+.+.+.#.+.A #.#.,.,.,.,.T A A A T A A A T ,.A A ,.T A ,.&.&.T T c c c &.",
"~ A A A &.A A A ~ H ~ H A k 4 s +.+.+.+.A A A A T A A A A +.+.+.+.,.,.#.,.,.,.~ ,.T &.T T ,.,.,.,.,.,.,.,.,.A ,.T A A &.&.A x x ",
"~ P A A &.+.A A P P ~ ~ K k 5 a +.+.#.+.A A A A ,.T A A A +.+.A #.#.#.A A A A A T T A A A A T T T T T ,.,.,.A A A A &.&.&.A +.+.",
"x P A A A A A A v P ~ ~ G l 5 f +.+.A A A A A A T A A A A A +.A A A A A A A A ~ A A A P A A A A A x x A A A T A A A A A A x x x ",
"z P P A A A A P P P ~ P A A 4 f #.+.G x v A A A A A x A A A A G A A A A A A A T A T A A A A A A T A A A A T ,.T T A x A A x x x ",
"A A A P P P P P P P A A ,.A 4 s #.+.A G v A A A A x x A A &.A G A T T A A A A x P P A P A x x A ,.T T T A K ~ P A A A A A A A A ",
"~ P P P P v x v P P ,.,.T x 7 h A A G A A A A A A A x A A A G x x A T x A ,.T x x P A A A A A A x x x T ~ K A x x A T T A A A &.",
"P v H H v v P H P z ,.~ A x 8 h #.#.,.A A A A x A A A ~ A A A A A ,.T A A A A ,.,.A x A A A x x T A A A A ~ P P A P A A A A x x ",
"K H H H v H H P P ~ v v A x r y x x A #.A x x A A A P A P P A A A A A A A A A A A A A A T T A x A A A A P P P ~ P A T A A x A T ",
"H H H v v H H H v v A x P z 6 y #.A A G A ,.,.A ~ A A A A A A ,.&.A A T T T T A A T T A A A T x A A A ,.~ ~ ~ P P ~ A A T T x T ",
",.K K H v H } ~ K i.K A ~ k , a v A K A A T T x A A A T A A A ,.,.A T ,.,.,.w.,.A T ,.T ,.,.w.,.T ,.A A A A ~ ~ ~ ~ T A w.,.x T ",
"x.~ v H P P P P P ~ T A w.A % 4 x.A x A T A A A x A A ,.A A A ~ T T ,.T A A T A ,.T T ,.T T T T ,.,.,.#.T A A A x A T x A x A w.",
"h.,.K } ~ H P P ~ x A k z h . $ K x l x A A T ,.A T ,.,.A A P P ,.w.h.w.w.w.w.h.h.,.,.,.T T w.h.w.#.+.G ,.h.h.h.,.,.T T ,.,.w.A.",
"1 1 3 3 < , , , 3 1 * ; ; * o @ $ ; 4 3 > 3 4 3 3 3 3 3 3 3 , > ; 3 , > 3 3 3 7 6 4 3 3 3 6 7 8 r 8 8 3 1 4 3 7 7 6 4 6 7 6 6 3 ",
"a a a s s s s a a s a h h k x z k k h s s d s a p p y y a s s y y a y 8 r r 8 y r r r 9 7 7 6 3 $ ; y r 9 9 7 9 r 9 9 r 9 6 3 > ",
"A T A P P P A G G G A A A A K K A A G G G G A #.#.#.#.#.#.A A A ,.T T w.w.,.T ,.,.w.a.a.a.a.a.~ + = z ,.T T w.,.,.T T ,.,.&.N.S.",
",.~ A A A P A A G G v K K K A v #.A G G A G A #.A A A A A G G A A T T T T T T T T T ~ ~ ~ ~ ~ A , 7 T T x x T T T T A T A A &.r.",
"a.~ A T A A G A A A A A G G A K #.A A A A A A A A G A A G G G A A T &.A A &.&.&.A A A T T A A A 8 y &.A A A A A A A P A &.A x A ",
",.~ A A A A G G A A A A x x A ~ #.A A A A A G G G v A G G G G A A A A x x +.&.+.A A T ,.,.,.~ T 7 y A x &.&.A A A A P A &.&.x x ",
"A A A P P A A A x G A A A P A A A A P P A A x x A x x P x x x A x G G x x G A x x x A &.&.T A T 8 y A x A G x G x A x x A A x x ",
"x A A x x A A P G x x x A A A x A A A A A A A x A x x P x x x x A A G G G G x x x x x x A A T ,.8 y #.G A G x x A A x x x x x x ",
"P P P P v P A A ~ A v x x v P P A A A P P A A A A A A P A x x A P P x x A x x x x A A A A T ,.,.4 r +.+.#.A A x A A A A T A x T ",
"~ A P A A P A A A A ~ A P z v A A A A P x P A A A x x A A A A A P v x A A A A A x A A A A ,.,.,.5 r G G A A A A A A A T ,.A x T ",
"P K i.v v x x v v G G v P P P K K z v v P ~ P P P P P A P P v v v A K P A T A x T T T A T T w.,.7 a h.A ,.T A x T x P T ] P T x ",
"P K K v v v v K K v v G A P P A K x P v P A v v P P P P A P P A A v x P T T A T T x x ,.w.T T ,.5 r ,.,.,.A x x x ] T z x x T w.",
"A G G G G #.G G +.G x G #.#.A G A A ,.A G A A A G G G A A A A #.A A A ,.T A A &.&.&.,.T T A T w.3 8 h.,.,.,.,.,.,.x A ,.A A 6.x ",
"G G G G G #.l l X.G G G +.#.+.x x x A A x x A A x l x G A x x G l G &.+.x x A +.&.&.T T T T x z 1 7 ,.A A A ,.,.A #.,.+.&.A A 6.",
"l l G X.l X.n n x X.X.l l X.+.x +.A A A A +.+.A x x x G +.G x G x l x x x x X.X.A x x A +.x A ,.5 5 x l +.x x +.l G +.x A >.+.>.",
">.x x G | %.%. .X.>.>.X.X.+.@.+...+.@.+...x +.+.@.+...+.+.+.@.@.X...X.>.@...x ..@.,.,.+.A x &.h.w 8 ,.A ,.x A >.#.G @.>.@.>.%. .",
"v.X.| X.%.%.%.| | | | l l x l l l ......l j l l j j j j j j j j j g j l l f f g l l j j j l j f e 5 x j j g l g l l l g g f u  .",
"e 0 e t e e i i u e e u u u t t t t e t t t t w w t t e w w w w e w 0 q w e e e w w q w w w u j w & q 5 7 5 w 1 : 1 2 2 2 0 0 e "
};
