/* XPM */
static char *_4e9f12377654a87a037ca9f6169402bV7PkTLEIr17G7OvC[] = {
/* columns rows colors chars-per-pixel */
"64 64 134 2 ",
"   c #C2A887",
".  c #C9AC85",
"X  c #C6A989",
"o  c #CBAF88",
"O  c #D0AF84",
"+  c #CCB28E",
"@  c #D4B68E",
"#  c #D5B88E",
"$  c #CEB492",
"%  c #D2B693",
"&  c #D4BA95",
"*  c #DBBC95",
"=  c #D6BD9B",
"-  c #DABF9B",
";  c #E0BF96",
":  c #D8BFA0",
">  c #DBC19E",
",  c #E2C296",
"<  c #E5C59C",
"1  c #D7C1A1",
"2  c #DBC3A4",
"3  c #DCC6A9",
"4  c #DDC9AA",
"5  c #E1C4A3",
"6  c #E5C9A3",
"7  c #EBCDA5",
"8  c #E0C5A8",
"9  c #E3CCAD",
"0  c #EACEAB",
"q  c #E7D2AD",
"w  c #EBD2AD",
"e  c #F0D4AF",
"r  c #E4CEB0",
"t  c #E6D3B4",
"y  c #E8D5B7",
"u  c #EAD5B6",
"i  c #E9D6B6",
"p  c #EAD7B6",
"a  c #EBD7B6",
"s  c #EBD6B7",
"d  c #EAD7B7",
"f  c #E9D5B5",
"g  c #ECD5B5",
"h  c #EFD5B4",
"j  c #EDD6B4",
"k  c #EED7B5",
"l  c #EDD4B6",
"z  c #ECD5B6",
"x  c #EED5B7",
"c  c #EDD6B6",
"v  c #EED7B7",
"b  c #EAD4B3",
"n  c #E7D8B7",
"m  c #EED8B3",
"M  c #E8D8B7",
"N  c #ECD8B5",
"B  c #ECD8B7",
"V  c #EFD8B6",
"C  c #E7D3B8",
"Z  c #E5D4B8",
"A  c #E4D5B8",
"S  c #E6D5B9",
"D  c #E5D6B9",
"F  c #E7D6B8",
"G  c #E6D7B8",
"H  c #E7D6BA",
"J  c #E6D7BA",
"K  c #E8D3B8",
"L  c #E8D4B9",
"P  c #EAD5B8",
"I  c #E9D6B8",
"U  c #E8D7B9",
"Y  c #EBD6B9",
"T  c #EAD7B9",
"R  c #E9D5BA",
"E  c #E8D7BB",
"W  c #ECD7B8",
"Q  c #ECD7BA",
"!  c #E5D8B8",
"~  c #E7D8B9",
"^  c #E6D9B9",
"/  c #E7D8BB",
"(  c #E7DABA",
")  c #E9D9B8",
"_  c #EBD8B8",
"`  c #E9DAB9",
"'  c #EADAB9",
"]  c #E9D8BA",
"[  c #E8D9BA",
"{  c #EBD8BA",
"}  c #EAD9BB",
"|  c #E9DABB",
" . c #EBDBBA",
".. c #ECD9B8",
"X. c #EDD8B9",
"o. c #ECD9B9",
"O. c #EDDAB9",
"+. c #EEDAB9",
"@. c #EDD8BB",
"#. c #ECD9BB",
"$. c #EDDABA",
"%. c #EFDABB",
"&. c #EEDBBB",
"*. c #ECDCBB",
"=. c #E9D8BC",
"-. c #E8D9BC",
";. c #EAD9BD",
":. c #E9DABD",
">. c #EBDABC",
",. c #EADBBC",
"<. c #EBDABE",
"1. c #EED9BC",
"2. c #EDDABC",
"3. c #ECDBBD",
"4. c #EEDBBD",
"5. c #E9DCBC",
"6. c #EDDDBC",
"7. c #EFDCBC",
"8. c #EDDCBE",
"9. c #EFDCBE",
"0. c #F1D5B0",
"q. c #F1D5B0",
"w. c #F1D8B0",
"e. c #F3DAB2",
"r. c #F1D9B5",
"t. c #F0D8B6",
"y. c #F3D9B6",
"u. c #F0D9B9",
"i. c #F1D8BA",
"p. c #F0DBBC",
"a. c #F3DABC",
"s. c #F3DFBE",
"d. c #F5DEBE",
"f. c #F5DBB8",
/* pixels */
"8 2 2 : : : = = : 2 2 > 5 6 5 & = 1 2 2 2 2 2 2 4 4 4 9 9 4 9 r 9 9 3 3 4 3 3 3 2 3 2 2 9 2 - $ 1 2 2 2 2 2 2 3 4 4 3 2 9 9 9 9 ",
"a.i.l l l l l l l l b b w 8 %   2 4 9 t t s I I I I I I I I I I s s s s I I t K I r b f b 2 X + 4 9 t t s s s s s s s s t b b l ",
"1.@.Q s s { @.@.@.@.@.s.d.l 9 2 b @.7.@.@.@.{ I { @.{ I I { @.{ I { { { { { -.-.1.I @.@.i.b $ 2 @.@.@.@.7.-.{ { F I @.1.{ s Q a.",
"{ { { { { { { { { { { @.{ t t t s @.@.{ @.@.1.1.{ { I A s { { A A ~ ~ A ~ ~ ~ -.F { { s { B 9 b s { s M -.7.7.7.{ I I { @.{ Q Q ",
"I F F ~ ~ ~ ~ A ~ ~ ~ { { { @.{ { *.{ A A A s s { { { F F { F t A n ~ n ~ ~ ~ n 5.{ -.*.7.s @.@.7.1.{ F F -.F F -.-.I F I { I s ",
"-.-.F F ~ ~ ~ ~ A ~ { F A A s A A M A A M M s s I I F F F I A t A A F A ~ { F A ~ t ~ F A t s A { { F A ~ -.F F F F I F A { @.{ ",
"I I I F F F F F A I { I t t s s A M A A A A A A A A F F I I I F A { M A I I A F { { { A t s s A A F A A F F F F I -.{ I I I I @.",
"A s I I s A A s I s t s I I s f s M A A A A A s F A A F F A A A A s s A A s t s t @.t I I s f f I { F A F F F F F A t F I I s I ",
"t f s f t t b s s s s s s s b t s s t A s I s t A s s s s s A A s s s b s s s f f f f f s s f t s s A A s s s s s s A t s A A t ",
"t A f t t t b s s s s s s s b t t A A A s s A t A s s s A s s A s t b t f A s s I s f s s s f t s A A A t t t A s s s s s s A A ",
"t A s A t A s A A A s A s A A t t f s s f t f f s s I I s s s A A A A A A A s A s A s A s A A A s s A A A t t t s s s s s s s s ",
"t A A A A A A A t t t t A A A t t f s f t t t f s s s s f t f s A A A A A A A A A A A t A A A A s s s s A t t A t s s s t t s s ",
"t t t t t A A t t t t t A A t t s s A A A t t t A A A t t t t A t A A A A A t A t t t t A A A A A A s s A t t A t t A t t t t A ",
"t t t t t t t t t t t t A A s s s s A A A A A A s A A t t A t A A A A A A t t A t t A A A A s A A A A A A t t A A A t t t t A A ",
"t A t t t A t t t t t t t t f A A t A A s s A A s A t t A s t A C C C I s A f t t t f A f A f A A A t t F t C C t t t t C F F F ",
"f f f t f f f t t t t t t t t t t t A A s s A s s t t t t A A t C C t C f f t t t t f f t t t t A t t t t t C C t t t t C C t t ",
"A t t t t t A A t t t t t t t t t t t t t t t t t t t t s s s s s s t t t t t t s s t t t t t t t t t t t t t t t t t t t t t A ",
"A A A A t t t t t A A A b t t t t t s t t A s s t t t t t s s s s A s t t t t t A s t t t t t t t t t t t A A A t t t t t t t t ",
"A A A A A t t t t t t A b t t t t t t t t A A A A A A A A A A A A A A t A A A A t t t t t t t t t t t t A A A A t t t t t t t t ",
"t t t t t t t t t t t t t t t t t A A t t A A t A A A A A A A A t t t A A A A A A A t t t t t t t t t t t t t t t t A A A t t t ",
"t t t t t t t t s b t t t t t t A A t t t t A A t t t t t t t t t t t t t t A A s s A t t t t t t t t t t t t t t t t t t t t t ",
"t t t t t t t t s b t t t t t t t t t t t t A A t t t t t t t t A s A A A A A s I s A t t t t t t t t t t t t A A A t t t t t t ",
"t t t t t t t t t t t t t t t t t t t t t t t t A s A A A A s s s s s s A A A t A A t t t A t t t t t t t t t A A A t t t t t t ",
"t t t t A A A A t t t t t f t t t t t t t t t t t t t t t t t t t t A A A A t t t t t t t A t t t t t t t t t t t t t t t t t t ",
"t t A t t t t t t t t t t t t t t t t t t t t t A A A t t t t t A A A A t t t t t t t t t t t t t t t t A t t t t t t t t t t t ",
"t t t t t t t t t t t t t t t t t t t t t t t t A A t t t t t t t t t t t t t t t t t t t t t t t t t t t t t t t t t t t t t t ",
"t t t t t t t t t t t t b b t t t t t t t t t t t t t t t t t t t t t A A t t t t t t t t t t A t t t t t t t t t t t t t t t t ",
"t t t t t A A t t t t t t t t t t t t t t t t t t t t t t t t A t t t A A A t t t t t t t t t A t t t t t t t t t t t t t t t t ",
"t t t t t A A A t t t t t t t t t t t t t t t t t t t t t t f f t t t t t t A A A t t t t t t t t t t t t t t t t t t t t t t t ",
"t t t t t t A A t t t t t t t t t t t t t t t t t t t t t f f f t t t t t t t A A t t t t t t t t t t t t t t t t t t t t t t t ",
"t t t t t t t A t t t t t t t t t t t t t t t t t t f f f f t t t t t t t t t t A t t t t t t t t t t t t t t t t t t t t t t t ",
"t t t t t t t A t t t t t t t t t t t t t t t t f f f f t t t t t s A A A s A t t t t t t t t t t t t t t t t t t t t t t t t t ",
"t t t t t t t t t t t t t t t t A A t t t t t t t t t t t t t s t t A s A t t t A t t t t t t t t t t t t t t t t t t t t t t t ",
"t t t t t t t t t t t t t t t t t t t t t t t t t t t t t A t t t t s t t t t t t t t t t t t t t t t t t t t t t t t t t t t t ",
"t t t t t t t t t t t t t t t t t t t t t t t t t t t t A A t t t t t t t t t A t t t t t t t t t t t t t t t t t t t t t t t t ",
"t t t t t t t A t t t t t t t t t t t t t t t t t t t t t t t t t A A t t t t A A A A A t t t A t t t t t t t t t t t t t t t t ",
"t t t t t t t t t t t t t t t t t t t t b t t t t t t t t t t t t A A A A t t t t t A t t t t t t t t t t t t t t t t t t t t t ",
"t t t t t t t t t t t t t t t t t t t t b b t t t t t t t t t t t t A A A t t t t t t t t t t t t t t t t t t t t t t t t t t t ",
"t t t t t t t t t t t t t t t t t t t t t b t t t t t t t t t t t t A A t t t t A t t t A A t t t t t t t t t t t t t t t t t t ",
"A t t t t t t t t t t t t t t t t t t t t t t t b t t t t b t t t t t t t t t t t t t t t t t t t t t t t t t t t t t t t t t t ",
"t t t t t t t t t t t t t b t t r t t t t t t t t t t t t t t b t t t t t t t t A t t t t A t t t t t t t t t t t t t t t t t t ",
"t t t t t t t t t t t t t t t t r r t t t t t t t t t t t t t t t t t t t t t t t t t t t t t t t t t t t t t t t t t t t t t t ",
"t t t t t t t t t t t t t t t t t t t t t t t t t t t t t t t t t t t t t A t t t t t t t t t t t t t t t t t t t t t t t t t t ",
"t t t t t t t t t t t t t t t t b t t t t t t t t t t t t t t t t t t t t t t t t t t t t t t t t t t t t t t t t t t t t t t t ",
"t t t t t t t t t t t t t t t t t t t t t t t t t t t t t t t t t t t t t t t t t t t t t t t t t t t t t t t t t t t t t t t t ",
"t t t t t t t t t t t t t t t t t t t t t t t t t t t t t t t t t t t t t t b t t t t t t t t t t t t t t t t t t t t t t t t t ",
"t t t t t t t t t t t t t t t t t t t t t t t t t t t t t t t t t t t t t t t t t t t t t t t t t t t t t t t t t t t t t t t t ",
"t t t t t t t t t t t t t t t t t t t t t t t t b t t t t t t t b t t t t t t t t t t t t t t t t t t t t t t t t t t t t t t t ",
"t t t t t t t t t r t t t t t t t t t t r t t t t t t f f t t t t t A t t t t t t t t t t t t t t t r r r r t t t t t t t t t t ",
"t t t t t t t t t t t t t t t t t t t t t t t t t t t f t t t t t t t t t t t t t t t t t A t t t t t t r r t t t t t t t t t t ",
"f t t t r r r t b b b b t t t t t t t t r t t t t t t t t t t f t t t t t t t t f t t t t t t t b t t t r t t f t t t t t t t t ",
"t t t t t t t r b b b b t t t t t t t t r t t t t t t t t t t f t b f t t t t t f t t t t t t t f f t t t t t f f t t t t t t t ",
"r t t t t t b b b b b b t t t t t t t t t t b b t b b t t t t b t t b b t t t t b b t t t q t t b b t t t t t t t t t t t t t t ",
"t t t t b b b b b b b b t t t t t t t t t t b b b b b t t t t t t t t t t t t t b b b t t t t t t t t t t t t f t t t t t t t t ",
"A A t t f t f f b t t t t t t t t t b t t t t t t t t t t t t t t t t t t t t b t b b b t t t t t t t t t t t t t t t A t t t s ",
"s s s t f f f f b t t t b t t s t t b b t t t t t t t t t A t t b b t t t b b b t t t t t t t s t t A t t t t t t t t t t t t s ",
"s s s s t s s t t t t t t t t A s t t t A t t A A t t t s s f f s s t s s t t t t t s s t t t A t t t t A t t A t t t t s s s s ",
"t t s s A A s s t t s s s A A A s t s s s t t t A A s t t t t @.t t t t t t t s t t s s s s s t s t t t s t t t A A s t { t s B ",
"s t t s s s s s b b s s s s s s t b s s s s s s s s s b s B l l Q Q s s s s s s s s s s s s s s s s s s s s t s t s s b @.B l b ",
"t t b s b s B b b b b s s s s t t b b t f s s s b s s b j j j r.l s t t s s s b t b s s f b s s b b s b s b b b b j j j j w j r.",
"q q m l b j l j b j j b l B b b b b b b b b b b b b b q w w 7 7 b b s b l l l b b j l j s j l j b j g b l b b j j j j w w j e w ",
"r.w w w j b j j b j j b j l j b b b j j j b b j j j j e e 6 @ o 9 w j j j j j j j w b b j j j b b j b j t.j j j w e.w.w 6 6 < 6 ",
"f.w w w j j b w w w j j j j j b w j j w w w w j 9 w e w 7 * . . < 6 7 q w w b q 9 q w w w w w 7 0 w 0 w w w w q 7 7 7 7 * # # < ",
"% = 2 5 2 > - & & - > > = = = = > > = $ + % = % - - * & * * ; 7 * & & & - - % + + % & & % $ % % & & % % % @ o . o & # # , 7 , O "
};
